<?xml version="1.0" encoding="utf-8"?>
<!-- Generator: Adobe Illustrator 21.0.2, SVG Export Plug-In . SVG Version: 6.00 Build 0)  -->
<svg version="1.1" id="Layer_3" xmlns="http://www.w3.org/2000/svg" xmlns:xlink="http://www.w3.org/1999/xlink" x="0px" y="0px"
	 viewBox="0 0 100 100" style="enable-background:new 0 0 100 100;" xml:space="preserve">

<path fill="#27286c" d="M88.3,68.2c0.1,0.2,0.1,0.4,0,0.6c-0.1,0.2-0.3,0.3-0.5,0.4c-0.2,0.1-0.5,0-0.8-0.1s-0.5-0.3-0.6-0.5
	c-0.1-0.2-0.1-0.4,0-0.6c0.1-0.2,0.3-0.3,0.5-0.4c0.2-0.1,0.5,0,0.8,0.1C88,67.9,88.2,68,88.3,68.2z M49.3,51.8l0-9.2
	c-0.9-2.9-6.5-1.7-6.5-1.7v10.1C46.3,49.5,49.3,51.8,49.3,51.8z M51.9,90.4l0.2,0.2c0.2-0.1,0.3-0.2,0.4-0.3
	c0.1-0.1,0.1-0.2,0.1-0.3c0-0.1-0.1-0.2-0.1-0.3c-0.1-0.1-0.2-0.1-0.3-0.1c-0.1,0-0.2,0.1-0.3,0.1c-0.1,0.1-0.1,0.2-0.1,0.3
	c0,0.1,0,0.1,0.1,0.2C51.8,90.2,51.8,90.3,51.9,90.4z M56.7,51.1V41c0,0-5.5-1.2-6.5,1.7l0,9.2C50.2,51.8,53.1,49.5,56.7,51.1z
	 M48.6,53.4c0.5,0.4,1-0.5,0.5-0.8c-2.2-1.5-4.9-1.7-7.1-0.6c0-2.8,0-5.7,0-8.5c0-0.6-1-0.6-1,0c0,3.1,0,6.2,0,9.3
	c0,0.4,0.4,0.6,0.7,0.4C43.8,51.9,46.4,51.9,48.6,53.4z M84.8,73.3l-0.1-0.1c0,0.2-0.1,0.4-0.3,0.7c-0.1,0.2-0.1,0.3-0.1,0.4
	c0,0.1,0,0.2,0,0.2c0,0.1,0.1,0.1,0.1,0.2c0.1,0.1,0.2,0.1,0.3,0.1c0.1,0,0.2-0.1,0.3-0.3c0.1-0.1,0.2-0.3,0.2-0.4
	c0-0.2,0-0.3-0.1-0.4C85,73.5,84.9,73.4,84.8,73.3z M32.2,86.6c-0.2-0.1-0.4-0.1-0.6,0c-0.2,0.1-0.4,0.3-0.5,0.6
	c-0.1,0.3-0.2,0.6-0.1,0.8c0.1,0.2,0.2,0.4,0.4,0.5c0.2,0.1,0.4,0.1,0.6,0c0.2-0.1,0.4-0.3,0.5-0.6c0.1-0.3,0.2-0.6,0.1-0.8
	C32.5,86.8,32.4,86.6,32.2,86.6z M75.3,62.4H59.9l-10,17.3l-10-17.3H24.5l7.7-13.3l-7.7-13.3h15.4l10-17.3l10,17.3h15.4l-7.7,13.3
	L75.3,62.4z M61.3,38.1l5,8.6l5-8.6H61.3z M42.6,35.7h14.6l-7.3-12.6L42.6,35.7z M33.5,46.7l5-8.6h-9.9L33.5,46.7z M38.5,60l-5-8.6
	l-5,8.6H38.5z M57.2,62.4H42.6L49.9,75L57.2,62.4z M64.9,49.1l-6.3-10.9H41.2l-6.3,10.9L41.2,60h17.3L64.9,49.1z M61.3,60h9.9
	l-5-8.6L61.3,60z M91.5,47c-0.6,0-1,0.2-1.3,0.4c-0.3,0.3-0.4,0.6-0.4,1c0,0.4,0.2,0.7,0.5,1c0.3,0.3,0.7,0.4,1.3,0.3
	c0.6,0,1-0.2,1.3-0.4c0.3-0.3,0.4-0.6,0.4-1c0-0.4-0.2-0.8-0.5-1C92.5,47.1,92.1,47,91.5,47z M12.3,65.8c0.2,0.1,0.3,0.1,0.5,0
	c0.1-0.1,0.2-0.1,0.3-0.3c0.1-0.1,0.1-0.2,0.1-0.4c0-0.1-0.1-0.2-0.1-0.4l-0.3-0.9l-1.2,0.5l0.3,0.9C12,65.5,12.1,65.7,12.3,65.8z
	 M42.6,90c-0.2,0-0.4,0-0.5,0.1c-0.2,0.1-0.3,0.3-0.3,0.5l1.5,0.3c0-0.2,0-0.4-0.1-0.5C43,90.1,42.9,90,42.6,90z M100,50
	c0,27.6-22.4,50-50,50C22.4,100,0,77.6,0,50S22.4,0,50,0C77.6,0,100,22.4,100,50z M93.9,47.2c-0.1-0.2-0.3-0.4-0.5-0.6
	c-0.2-0.2-0.4-0.3-0.7-0.4c-0.4-0.1-0.8-0.2-1.3-0.2c-0.8,0-1.4,0.3-1.9,0.7c-0.4,0.5-0.6,1.1-0.6,1.8c0,0.7,0.3,1.3,0.8,1.8
	c0.5,0.4,1.1,0.6,1.9,0.6c0.8,0,1.5-0.3,1.9-0.7s0.7-1.1,0.6-1.8C94.2,47.9,94.1,47.5,93.9,47.2z M92.6,40.7
	c-0.2-0.2-0.5-0.3-0.8-0.3c-0.4-0.1-0.8-0.1-1.3,0c-0.8,0.1-1.4,0.5-1.8,1c-0.4,0.5-0.5,1.1-0.4,1.9c0.1,0.7,0.5,1.3,1,1.6
	c0.5,0.4,1.2,0.5,2,0.3c0.8-0.1,1.4-0.5,1.8-1c0.4-0.5,0.5-1.2,0.4-1.9c-0.1-0.4-0.2-0.8-0.4-1C93,41,92.8,40.8,92.6,40.7z
	 M91.4,34.7l-4.8,1.5l0.3,1l2.1-0.7l0.6,1.9l-2.1,0.7l0.3,1l4.8-1.5l-0.3-1l-1.9,0.6l-0.6-1.9l1.9-0.6L91.4,34.7z M86.7,30.5
	c-0.7,0.3-1.2,0.8-1.4,1.4c-0.2,0.6-0.2,1.2,0.1,1.8c0.2,0.5,0.5,0.8,0.9,1.1c0.4,0.2,0.9,0.3,1.4,0.2l-0.1-1
	c-0.4,0.1-0.7,0.1-0.9,0c-0.2-0.1-0.4-0.3-0.5-0.5c-0.2-0.3-0.2-0.7,0-1c0.1-0.3,0.5-0.6,1.1-0.9c0.5-0.3,1-0.3,1.3-0.2
	c0.3,0.1,0.6,0.3,0.8,0.7c0.1,0.2,0.1,0.5,0.1,0.7c-0.1,0.2-0.2,0.4-0.4,0.6l0.6,0.8c0.3-0.3,0.5-0.6,0.6-0.9c0.2-0.5,0.1-1-0.1-1.6
	c-0.3-0.6-0.8-1.1-1.4-1.3C88.2,30.1,87.5,30.1,86.7,30.5z M84.4,29.5c-0.2-0.1-0.4-0.2-0.6-0.5c-0.2-0.3-0.2-0.5-0.2-0.8
	c0-0.2,0.2-0.5,0.4-0.7l-0.6-0.8c-0.4,0.4-0.7,0.8-0.8,1.2c-0.1,0.4,0.1,0.9,0.4,1.5c0.2,0.4,0.5,0.7,0.7,0.8
	c0.3,0.2,0.5,0.3,0.8,0.3c0.3,0,0.6-0.1,0.8-0.2c0.3-0.2,0.5-0.4,0.6-0.6c0.1-0.2,0.2-0.5,0.1-0.7c0-0.3-0.1-0.6-0.3-1.1
	s-0.2-0.8-0.2-1c0-0.1,0.1-0.2,0.2-0.3c0.1-0.1,0.2-0.1,0.4,0c0.2,0.1,0.4,0.2,0.5,0.5c0.2,0.2,0.2,0.5,0.2,0.6
	c0,0.2-0.1,0.4-0.3,0.5l0.6,0.8c0.4-0.3,0.6-0.6,0.7-1c0.1-0.4-0.1-0.9-0.4-1.4c-0.2-0.3-0.4-0.6-0.7-0.8c-0.2-0.2-0.5-0.3-0.8-0.3
	c-0.3,0-0.5,0.1-0.7,0.2c-0.3,0.2-0.5,0.5-0.6,0.9c-0.1,0.3,0,0.7,0.2,1.2c0.1,0.4,0.2,0.7,0.2,0.8c0,0.2,0,0.3,0,0.4
	c0,0.1-0.1,0.2-0.2,0.3C84.8,29.5,84.6,29.5,84.4,29.5z M84.4,69.1l-0.2,0.4l0.5,0.3l0.2-0.4L84.4,69.1z M81.6,19.1l-3.8,3.4
	l0.7,0.8l1.7-1.5l1.3,1.5l-1.7,1.5l0.7,0.8l3.8-3.4l-0.7-0.8l-1.5,1.3l-1.3-1.5l1.5-1.3L81.6,19.1z M76.5,16
	c-0.4,0.2-0.8,0.4-1.2,0.8c-0.3,0.4-0.5,0.8-0.7,1.2c-0.1,0.4-0.1,0.9,0.1,1.3c0.2,0.4,0.4,0.8,0.8,1.2c0.3,0.3,0.7,0.5,1.1,0.6
	c0.4,0.1,0.8,0.2,1.1,0.2l1.3-1.5l-1.7-1.4l-0.6,0.6l0.9,0.8l-0.4,0.5c-0.2,0-0.4-0.1-0.6-0.1c-0.2-0.1-0.4-0.2-0.6-0.3
	c-0.3-0.3-0.5-0.6-0.5-1c0-0.4,0.2-0.8,0.6-1.3c0.4-0.4,0.7-0.7,1.1-0.7c0.4,0,0.7,0.1,1.1,0.4c0.2,0.2,0.4,0.4,0.4,0.6
	c0.1,0.2,0,0.5-0.1,0.7l0.9,0.5c0.2-0.4,0.3-0.8,0.2-1.3c-0.1-0.4-0.4-0.9-0.9-1.3c-0.4-0.3-0.7-0.5-1.1-0.6
	C77.4,15.9,76.9,15.9,76.5,16z M75.1,13.7l-2.9,4.1l0.8,0.6l2.9-4.1L75.1,13.7z M68,15.3l0.9,0.5l1.1-1.9l1.7,1l-1.1,1.9l0.9,0.5
	l2.6-4.4l-0.9-0.5l-1,1.7l-1.7-1l1-1.7l-0.9-0.5L68,15.3z M63.4,7.9l-1.8,4.8l1,0.4l0.8-2.1l1.9,0.7l-0.8,2.1l1,0.4l1.8-4.8l-1-0.4
	l-0.7,1.9l-1.9-0.7l0.7-1.9L63.4,7.9z M57.6,11.3c0.3,0.4,0.7,0.6,1.3,0.8c0.4,0.1,0.8,0.1,1.1,0.1c0.3-0.1,0.6-0.2,0.8-0.4
	s0.4-0.5,0.4-0.7c0.1-0.3,0.1-0.6,0-0.8c-0.1-0.2-0.2-0.5-0.4-0.6c-0.2-0.2-0.5-0.4-1-0.6c-0.5-0.2-0.7-0.4-0.8-0.5
	c-0.1-0.1-0.1-0.2-0.1-0.3c0-0.1,0.1-0.2,0.2-0.3c0.2-0.1,0.4-0.1,0.7,0c0.3,0.1,0.5,0.2,0.6,0.3c0.1,0.1,0.2,0.3,0.1,0.6l1,0.2
	c0.1-0.5,0-0.9-0.2-1.2c-0.2-0.3-0.7-0.6-1.3-0.7c-0.4-0.1-0.7-0.1-1-0.1c-0.3,0.1-0.5,0.2-0.7,0.4c-0.2,0.2-0.3,0.4-0.4,0.7
	c-0.1,0.4,0,0.8,0.2,1.1c0.2,0.2,0.5,0.5,1,0.8c0.4,0.2,0.6,0.3,0.7,0.4c0.2,0.1,0.3,0.2,0.3,0.3c0,0.1,0.1,0.2,0,0.3
	c0,0.2-0.2,0.3-0.4,0.4c-0.2,0.1-0.5,0.1-0.8,0c-0.3-0.1-0.5-0.2-0.7-0.4c-0.1-0.2-0.2-0.5-0.2-0.8l-1-0.1
	C57.2,10.5,57.3,10.9,57.6,11.3z M55.3,11.3l1,0.1l0.7-5l-1-0.1L55.3,11.3z M51.1,10.9l3.6,0.2l0.1-0.9l-2.5-0.2L52.5,6l-1-0.1
	L51.1,10.9z M45.4,8.6c0,0.5,0.1,0.9,0.4,1.3c0.2,0.4,0.5,0.7,0.9,0.9c0.4,0.2,0.9,0.3,1.4,0.3c0.4,0,0.8-0.1,1.2-0.3
	s0.7-0.4,0.9-0.6l-0.1-2l-2.2,0.1l0,0.9l1.2-0.1l0,0.6c-0.1,0.1-0.3,0.2-0.5,0.3c-0.2,0.1-0.4,0.1-0.6,0.2c-0.4,0-0.8-0.1-1.1-0.4
	s-0.4-0.7-0.5-1.3c0-0.6,0.1-1,0.3-1.3s0.6-0.5,1-0.5c0.3,0,0.5,0,0.7,0.2C48.8,7,48.9,7.2,49,7.5l1-0.2c-0.1-0.5-0.4-0.8-0.7-1.1
	c-0.4-0.2-0.9-0.4-1.5-0.3c-0.5,0-0.9,0.1-1.2,0.3c-0.4,0.2-0.7,0.6-0.9,1C45.5,7.6,45.4,8.1,45.4,8.6z M39.9,7l0.9,5l0.9-0.2
	l-0.6-3.3l2.6,2.9l1-0.2l-0.9-5l-0.9,0.2l0.6,3.3l-2.7-3L39.9,7z M34.9,8.5l1.5,4.8l3.7-1.2l-0.3-0.8l-2.7,0.9l-0.4-1.3l2.4-0.8
	l-0.3-0.8l-2.4,0.8L36.1,9l2.6-0.8l-0.3-0.8L34.9,8.5z M28.3,11.5l0.4,0.8l1.3-0.7l1.9,3.8l0.9-0.5l-1.9-3.8l1.3-0.7l-0.4-0.8
	L28.3,11.5z M23.9,14.4l2.8,4.2l0.9-0.6l-1.2-1.8l1.7-1.1l1.2,1.8l0.9-0.6l-2.8-4.2l-0.9,0.6l1.1,1.7l-1.7,1.1l-1.1-1.7L23.9,14.4z
	 M20.2,19c0.1,0.5,0.3,0.9,0.7,1.3c0.3,0.4,0.7,0.6,1.1,0.8c0.4,0.2,0.9,0.2,1.3,0.1c0.4-0.1,0.9-0.3,1.3-0.7c0.3-0.3,0.6-0.6,0.8-1
	c0.2-0.4,0.3-0.7,0.3-1L24.3,17l-1.7,1.5l0.6,0.6l0.9-0.8l0.4,0.5c0,0.2-0.1,0.4-0.2,0.6c-0.1,0.2-0.2,0.4-0.4,0.5
	c-0.3,0.3-0.7,0.4-1.1,0.4c-0.4-0.1-0.8-0.3-1.2-0.8c-0.4-0.4-0.5-0.8-0.5-1.2c0-0.4,0.2-0.7,0.5-1c0.2-0.2,0.5-0.3,0.7-0.3
	c0.2,0,0.5,0,0.7,0.2l0.6-0.8c-0.4-0.3-0.8-0.4-1.2-0.4c-0.4,0-0.9,0.3-1.4,0.7c-0.4,0.3-0.6,0.6-0.7,1C20.1,18.1,20.1,18.5,20.2,19
	z M17.7,20l3.7,3.5l0.7-0.7l-3.7-3.5L17.7,20z M14.8,23.5l3.9,3.2l2.3-2.8l-0.7-0.5l-1.6,2l-3.2-2.6L14.8,23.5z M10.8,29.7l4.4,2.5
	l1.9-3.3l-0.7-0.4L15,30.9l-1.2-0.7L15,28l-0.7-0.4L13,29.8l-1-0.6l1.4-2.4l-0.7-0.4L10.8,29.7z M8.5,34.8l4.7,2l0.4-0.9l-2-0.8
	l0.1-0.2c0.1-0.2,0.2-0.4,0.3-0.5c0.1-0.1,0.2-0.2,0.3-0.2c0.1,0,0.4-0.1,0.9-0.2l1.3-0.3l0.5-1.1l-1.2,0.2c-0.5,0.1-0.8,0.1-1,0.2
	c-0.2,0.1-0.4,0.2-0.6,0.3c0.1-0.4,0.1-0.8,0-1.1s-0.4-0.5-0.7-0.7c-0.3-0.1-0.6-0.2-0.8-0.1c-0.3,0-0.5,0.2-0.7,0.4
	c-0.2,0.2-0.4,0.5-0.6,1L8.5,34.8z M6.9,40.2l2.6,0.7c0.5,0.2,1,0.2,1.3,0.2c0.2,0,0.4,0,0.6-0.1c0.2-0.1,0.4-0.2,0.6-0.5
	s0.3-0.6,0.5-1c0.1-0.4,0.1-0.7,0.1-1c0-0.3-0.1-0.5-0.2-0.7c-0.1-0.2-0.3-0.3-0.5-0.5c-0.2-0.1-0.6-0.3-1.2-0.4L8,36.3l-0.3,1
	l2.7,0.7c0.4,0.1,0.7,0.2,0.8,0.3c0.2,0.1,0.3,0.2,0.4,0.4c0.1,0.2,0.1,0.4,0,0.7c-0.1,0.3-0.2,0.5-0.4,0.6
	c-0.2,0.1-0.4,0.2-0.6,0.2c-0.1,0-0.4-0.1-0.8-0.2l-2.6-0.7L6.9,40.2z M6.1,45.2l0.8,0.1l0.2-1.5l4.2,0.6l0.2-1l-4.2-0.6l0.2-1.5
	l-0.8-0.1L6.1,45.2z M5.8,50.5l2.7,0.1c0.6,0,1,0,1.3-0.1c0.2,0,0.4-0.1,0.6-0.3c0.2-0.1,0.3-0.3,0.5-0.6c0.1-0.2,0.2-0.6,0.2-1.1
	c0-0.4,0-0.7-0.1-1c-0.1-0.3-0.2-0.5-0.4-0.6c-0.2-0.2-0.4-0.3-0.6-0.3c-0.2-0.1-0.7-0.1-1.3-0.1L6,46.4l0,1l2.8,0.1
	c0.4,0,0.7,0,0.9,0.1c0.2,0,0.3,0.1,0.4,0.3c0.1,0.2,0.2,0.4,0.2,0.7c0,0.3-0.1,0.5-0.2,0.7c-0.1,0.2-0.3,0.3-0.5,0.3
	c-0.1,0-0.4,0-0.8,0l-2.7-0.1L5.8,50.5z M6.2,55.2l5.1-0.4l-0.1-1L9,53.9l-0.2-2.1L8,51.9L8.1,54l-1.2,0.1l-0.2-2.4l-0.9,0.1
	L6.2,55.2z M9.5,61.1l1.4,0.7l-0.3-1.5l1.1-1.1l-1.5-0.2l-0.7-1.4l-0.7,1.4l-1.5,0.2l1.1,1.1l-0.3,1.5L9.5,61.1z M11.1,64.5l0.3,0.9
	c0.2,0.5,0.4,0.8,0.7,0.9c0.3,0.1,0.6,0.1,0.8,0c0.2-0.1,0.3-0.2,0.4-0.3c0.1-0.1,0.2-0.3,0.2-0.4c0-0.1,0-0.3,0-0.5
	c0-0.1-0.1-0.3-0.2-0.5L13,63.3l-3.4,1.4l0.2,0.5L11.1,64.5z M12.8,69.9l-0.2-0.4c-0.2,0-0.4,0-0.5-0.1c-0.1-0.1-0.2-0.2-0.3-0.3
	c-0.1-0.2-0.1-0.4,0-0.6c0.1-0.2,0.2-0.4,0.5-0.5l0.9,1.8c0,0,0.1,0,0.1-0.1c0.4-0.2,0.6-0.4,0.8-0.8c0.1-0.3,0.1-0.6-0.1-0.9
	c-0.2-0.3-0.4-0.5-0.7-0.6c-0.3-0.1-0.7,0-1.1,0.2c-0.4,0.2-0.6,0.4-0.7,0.8c-0.1,0.3-0.1,0.6,0.1,1c0.1,0.3,0.3,0.5,0.5,0.6
	C12.3,69.9,12.5,69.9,12.8,69.9z M14.6,72.4l0.5-0.3c0.2-0.1,0.3-0.2,0.3-0.2c0.1-0.1,0.2-0.2,0.2-0.3c0-0.1,0-0.2,0-0.4
	c0-0.1-0.1-0.3-0.2-0.5c-0.1-0.2-0.2-0.4-0.4-0.5c-0.1-0.1-0.3-0.2-0.4-0.2c-0.1,0-0.3,0-0.5,0.1l0.2,0.4c0.2-0.1,0.3-0.1,0.5,0
	c0.1,0,0.2,0.2,0.3,0.3c0.1,0.2,0.2,0.4,0.1,0.5c0,0.1-0.1,0.2-0.3,0.3c0,0,0,0-0.1,0.1c-0.1-0.1-0.3-0.3-0.5-0.6
	c-0.1-0.1-0.2-0.2-0.3-0.3c-0.1-0.1-0.2-0.2-0.3-0.2c-0.1,0-0.2-0.1-0.3-0.1c-0.1,0-0.2,0-0.4,0.1c-0.2,0.1-0.3,0.3-0.3,0.5
	c0,0.2,0,0.4,0.2,0.7c0.1,0.2,0.2,0.3,0.3,0.4c0.1,0.1,0.3,0.2,0.5,0.3c-0.1,0.1-0.2,0.2-0.2,0.2l0.2,0.4c0.1-0.1,0.1-0.2,0.2-0.3
	S14.3,72.6,14.6,72.4z M15.1,74.1c0.1-0.2,0.2-0.4,0.5-0.6c0.3-0.2,0.5-0.3,0.8-0.3c0.2,0,0.4,0.1,0.5,0.3c0.1,0.1,0.1,0.3,0.1,0.4
	c0,0.1-0.1,0.3-0.2,0.4l0.3,0.3c0.2-0.2,0.3-0.4,0.3-0.6c0-0.2-0.1-0.5-0.2-0.7c-0.1-0.2-0.3-0.3-0.5-0.4c-0.2-0.1-0.4-0.1-0.6-0.1
	c-0.2,0-0.5,0.2-0.7,0.3c-0.4,0.3-0.6,0.5-0.6,0.9c-0.1,0.3,0,0.6,0.2,0.9c0.2,0.2,0.4,0.4,0.6,0.5s0.5,0,0.8-0.1l-0.2-0.4
	c-0.2,0.1-0.4,0.1-0.5,0.1c-0.2,0-0.3-0.1-0.4-0.3C15,74.5,15,74.3,15.1,74.1z M19.1,76.4c0-0.3,0-0.6-0.3-0.9
	c-0.2-0.3-0.5-0.4-0.9-0.5c-0.3,0-0.7,0.1-1,0.4c-0.3,0.3-0.5,0.6-0.6,0.9c0,0.3,0.1,0.6,0.3,0.9c0.2,0.2,0.4,0.4,0.7,0.4
	c0.2,0.1,0.5,0,0.7-0.1l-0.3-0.4c-0.2,0.1-0.4,0.1-0.5,0c-0.1,0-0.3-0.1-0.4-0.2c-0.1-0.2-0.2-0.4-0.2-0.6c0-0.2,0.1-0.4,0.4-0.6
	l1.3,1.5c0,0,0.1-0.1,0.1-0.1C18.9,77,19.1,76.7,19.1,76.4z M21.7,81.8l-1.6-1.6l0.9-0.9l1.5,1.4l0.3-0.3L21.2,79l0.8-0.8l1.6,1.5
	l0.3-0.3l-1.9-1.8l-2.5,2.7l2,1.9L21.7,81.8z M25.3,82.2c0-0.1,0-0.2-0.1-0.4c-0.1-0.1-0.2-0.2-0.3-0.3c-0.3-0.2-0.6-0.3-0.9-0.2
	l0.2-0.3l-0.3-0.3l-1.7,2.1l0.4,0.3l0.9-1.1c0.2-0.3,0.4-0.4,0.6-0.4c0.2,0,0.4,0,0.5,0.2c0.1,0.1,0.2,0.2,0.2,0.3
	c0,0.1,0,0.2,0,0.3c0,0.1-0.1,0.2-0.2,0.4l-1,1.3l0.4,0.3l1-1.3c0.1-0.2,0.2-0.3,0.3-0.4C25.3,82.4,25.3,82.3,25.3,82.2z M25.8,85.5
	l2.3-1.6l-0.4-0.3l-1.4,1c-0.2,0.1-0.3,0.2-0.4,0.3c0.1-0.2,0.1-0.4,0.2-0.5l0.4-1.6l-0.4-0.3l-0.7,2.8L25.8,85.5z M27.6,86.7
	l1.4-2.3l-0.4-0.2l-1.4,2.3L27.6,86.7z M29.3,84l0.3-0.4l-0.4-0.2l-0.3,0.4L29.3,84z M30.3,85.7c0.1,0.1,0.2,0.1,0.2,0.2l0.3-0.3
	c-0.1-0.2-0.2-0.3-0.3-0.4c-0.1-0.1-0.2-0.1-0.3-0.1c-0.1,0-0.2,0.1-0.4,0.2l0.2-0.4l-0.4-0.2l-1.3,2.3l0.4,0.2l0.7-1.2
	c0.1-0.2,0.2-0.3,0.3-0.4c0.1-0.1,0.2-0.1,0.3-0.1C30.2,85.6,30.3,85.6,30.3,85.7z M33,86.9c-0.1-0.3-0.3-0.6-0.6-0.7
	c-0.3-0.1-0.6-0.2-0.9-0.1c-0.3,0.1-0.6,0.4-0.8,0.8c-0.2,0.4-0.2,0.8-0.1,1.1c0.1,0.3,0.3,0.6,0.7,0.7c0.2,0.1,0.4,0.1,0.6,0.1
	c0.2,0,0.4-0.1,0.6-0.2c0.2-0.1,0.3-0.4,0.5-0.7C33.1,87.6,33.1,87.2,33,86.9z M36,88.5c0-0.1,0-0.2,0-0.4c0-0.1-0.1-0.2-0.2-0.3
	c-0.1-0.1-0.2-0.2-0.4-0.2c-0.3-0.1-0.7-0.1-0.9,0.1l0.1-0.4l-0.4-0.1l-1,2.5l0.4,0.2l0.5-1.3c0.1-0.3,0.3-0.5,0.4-0.6
	s0.4-0.1,0.5,0c0.1,0,0.2,0.1,0.3,0.2c0.1,0.1,0.1,0.2,0.1,0.3c0,0.1,0,0.2-0.1,0.4l-0.6,1.5l0.4,0.2l0.6-1.5
	C35.9,88.7,36,88.5,36,88.5z M40.4,89.4c-0.1-0.2-0.3-0.3-0.5-0.4c-0.3-0.1-0.6,0-0.9,0.2c0-0.2-0.1-0.3-0.2-0.4
	c-0.1-0.1-0.2-0.2-0.4-0.3c-0.2,0-0.3-0.1-0.5,0c-0.2,0-0.3,0.1-0.4,0.2l0.1-0.4l-0.4-0.1l-0.7,2.6l0.4,0.1l0.4-1.3
	c0.1-0.2,0.1-0.4,0.2-0.5c0.1-0.1,0.2-0.2,0.3-0.2c0.1,0,0.2,0,0.4,0c0.2,0,0.3,0.1,0.3,0.2c0,0.1,0,0.3,0,0.5L38,91.3l0.4,0.1
	l0.4-1.5c0.1-0.3,0.2-0.4,0.3-0.5c0.2-0.1,0.3-0.1,0.5-0.1c0.1,0,0.2,0.1,0.2,0.1c0.1,0.1,0.1,0.1,0.1,0.2c0,0.1,0,0.2-0.1,0.4
	l-0.5,1.6l0.4,0.1l0.5-1.8C40.5,89.8,40.5,89.5,40.4,89.4z M43.5,90.1c-0.2-0.3-0.4-0.4-0.8-0.5c-0.4-0.1-0.7,0-0.9,0.2
	c-0.3,0.2-0.4,0.5-0.5,1c-0.1,0.4,0,0.8,0.2,1.1c0.2,0.3,0.5,0.4,0.8,0.5c0.3,0.1,0.6,0,0.8-0.1c0.2-0.1,0.4-0.3,0.5-0.5l-0.4-0.1
	c-0.1,0.2-0.2,0.3-0.3,0.4C42.6,92,42.4,92,42.3,92c-0.2,0-0.4-0.1-0.5-0.3s-0.2-0.4-0.1-0.7l1.9,0.4c0-0.1,0-0.1,0-0.1
	C43.7,90.7,43.7,90.4,43.5,90.1z M46.7,90.8c0-0.1,0-0.2-0.1-0.3c-0.1-0.1-0.1-0.2-0.3-0.3c-0.1-0.1-0.3-0.1-0.4-0.1
	c-0.4,0-0.7,0.1-0.9,0.3l0-0.4l-0.4,0l-0.3,2.6l0.4,0l0.2-1.4c0-0.3,0.1-0.6,0.3-0.7c0.2-0.1,0.3-0.1,0.5-0.1c0.1,0,0.2,0.1,0.3,0.1
	s0.1,0.1,0.2,0.2c0,0.1,0,0.2,0,0.4l-0.2,1.6l0.4,0l0.2-1.6C46.7,91,46.7,90.9,46.7,90.8z M48.7,90.3l-0.5,0l0-0.9l-0.5,0.2l0,0.7
	l-0.3,0l0,0.3l0.3,0l-0.1,1.5c0,0.3,0,0.4,0,0.5c0,0.1,0.1,0.2,0.2,0.2c0.1,0.1,0.2,0.1,0.4,0.1c0.1,0,0.2,0,0.3,0l0-0.4
	c-0.1,0-0.1,0-0.2,0c-0.1,0-0.1,0-0.2,0c0,0-0.1-0.1-0.1-0.1c0,0,0-0.1,0-0.2l0.1-1.5l0.5,0L48.7,90.3z M50,83.5
	c18.5,0,33.5-15,33.5-33.5c0-18.5-15-33.5-33.5-33.5c-18.5,0-33.5,15-33.5,33.5C16.5,68.5,31.5,83.5,50,83.5z M67.3,85.3l-0.4,0.2
	l0.2,0.5l0.4-0.2L67.3,85.3z M54,92.6c-0.2-0.1-0.4-0.3-0.6-0.5c0.1-0.2,0.2-0.5,0.3-0.8l-0.5-0.1c0,0.2-0.1,0.4-0.1,0.5l-0.7-0.8
	c0.4-0.3,0.7-0.6,0.6-0.9c0-0.2-0.1-0.4-0.3-0.5s-0.4-0.2-0.6-0.2c-0.3,0-0.5,0.1-0.6,0.3c-0.2,0.2-0.2,0.4-0.2,0.6
	c0,0.1,0,0.2,0.1,0.3c0.1,0.1,0.2,0.3,0.4,0.4c-0.3,0.2-0.5,0.3-0.6,0.5c-0.1,0.2-0.2,0.4-0.2,0.6c0,0.3,0.1,0.5,0.3,0.7
	c0.2,0.2,0.5,0.4,0.9,0.3c0.2,0,0.4-0.1,0.6-0.2c0.2-0.1,0.3-0.2,0.5-0.4c0.2,0.2,0.4,0.4,0.6,0.5L54,92.6z M60.1,91.8
	c-0.2,0-0.4-0.1-0.7-0.2c0.1-0.2,0.2-0.4,0.3-0.7c0-0.3,0-0.5,0-0.8c-0.1-0.4-0.2-0.7-0.4-0.9c-0.2-0.3-0.4-0.4-0.7-0.5
	c-0.3-0.1-0.6-0.1-0.9-0.1c-0.3,0.1-0.6,0.2-0.8,0.4c-0.2,0.2-0.4,0.5-0.5,0.8c-0.1,0.3-0.1,0.7,0,1c0.1,0.4,0.2,0.7,0.4,0.9
	c0.2,0.3,0.4,0.4,0.7,0.5c0.3,0.1,0.6,0.1,0.9,0.1c0.3-0.1,0.6-0.2,0.8-0.4c0.3,0.2,0.6,0.2,0.9,0.3L60.1,91.8z M63.2,90.9l-0.8-2.5
	L62,88.5l0.4,1.4c0.1,0.2,0.1,0.4,0.1,0.5c0,0.1-0.1,0.2-0.2,0.3c-0.1,0.1-0.2,0.2-0.3,0.2c-0.1,0-0.2,0-0.4,0
	c-0.1,0-0.2-0.1-0.3-0.2c0-0.1-0.1-0.2-0.2-0.4l-0.4-1.4L60.4,89l0.5,1.6c0.1,0.2,0.1,0.3,0.1,0.4c0.1,0.1,0.1,0.2,0.2,0.3
	c0.1,0.1,0.2,0.1,0.4,0.1c0.1,0,0.3,0,0.4,0c0.3-0.1,0.6-0.3,0.7-0.7l0.1,0.4L63.2,90.9z M66.5,89.7c-0.1-0.1-0.2-0.2-0.2-0.3
	c-0.1-0.1-0.2-0.3-0.3-0.7l-0.2-0.6c-0.1-0.2-0.1-0.3-0.2-0.4c-0.1-0.1-0.1-0.2-0.2-0.2c-0.1-0.1-0.2-0.1-0.4-0.1
	c-0.2,0-0.3,0-0.5,0.1c-0.2,0.1-0.4,0.2-0.5,0.3c-0.1,0.1-0.2,0.3-0.3,0.4c0,0.1-0.1,0.3,0,0.5l0.4-0.1c0-0.2,0-0.3,0.1-0.4
	c0.1-0.1,0.2-0.2,0.4-0.3c0.2-0.1,0.4-0.1,0.5,0c0.1,0,0.2,0.1,0.3,0.3c0,0,0,0.1,0,0.1c-0.1,0.1-0.4,0.3-0.7,0.4
	c-0.2,0.1-0.3,0.2-0.3,0.2c-0.1,0.1-0.2,0.2-0.2,0.3c-0.1,0.1-0.1,0.2-0.1,0.3c0,0.1,0,0.2,0,0.4c0.1,0.2,0.2,0.3,0.4,0.4
	c0.2,0.1,0.4,0.1,0.7,0c0.2-0.1,0.3-0.1,0.4-0.3c0.1-0.1,0.2-0.3,0.3-0.5c0.1,0.1,0.1,0.2,0.2,0.3L66.5,89.7z M67.7,89.2l-1.5-3.3
	L65.8,86l1.5,3.3L67.7,89.2z M68.9,88.6l-1.2-2.4l-0.4,0.2l1.2,2.4L68.9,88.6z M70.6,87.7l-0.2-0.3c-0.1,0-0.1,0.1-0.2,0.1
	c-0.1,0-0.1,0-0.2,0c0,0-0.1,0-0.1,0c0,0-0.1-0.1-0.1-0.2l-0.7-1.4l0.4-0.2l-0.2-0.3l-0.4,0.2l-0.4-0.8l-0.3,0.4l0.3,0.6L68.2,86
	l0.2,0.3l0.3-0.2l0.7,1.4c0.1,0.2,0.2,0.4,0.3,0.4C69.8,88,69.9,88,70,88s0.2,0,0.4-0.1C70.4,87.9,70.5,87.8,70.6,87.7z M72.3,87.5
	c0-0.1,0-0.3-0.1-0.6L71.7,84l-0.4,0.2l0.3,1.6c0,0.2,0.1,0.4,0.2,0.6c-0.2-0.2-0.3-0.3-0.5-0.4l-1.3-1l-0.4,0.2l2.2,1.8
	c0,0.1,0,0.1,0,0.1c0,0.2,0.1,0.3,0.1,0.4c0,0.1,0,0.1-0.1,0.2c0,0.1-0.1,0.1-0.2,0.2c-0.1,0-0.1,0.1-0.2,0.1l0.3,0.3
	c0.1,0,0.2-0.1,0.3-0.1c0.1-0.1,0.2-0.2,0.3-0.3C72.3,87.8,72.4,87.6,72.3,87.5z M77.4,83.1l-0.3-0.3l-1.8,1.4l-0.8-1l1.6-1.2
	l-0.3-0.3l-1.6,1.2L73.7,82l1.7-1.3l-0.3-0.3L73,81.9l2.2,2.9L77.4,83.1z M79.8,80.9l-2.5-2.7L77,78.6l0.9,1c-0.1,0-0.3,0-0.4,0
	c-0.1,0-0.3,0.1-0.4,0.2c-0.2,0.1-0.3,0.3-0.3,0.5c-0.1,0.2,0,0.4,0,0.6c0.1,0.2,0.2,0.4,0.4,0.6c0.2,0.2,0.4,0.3,0.6,0.4
	c0.2,0.1,0.4,0.1,0.6,0.1c0.2,0,0.4-0.1,0.5-0.3c0.2-0.2,0.3-0.5,0.3-0.8l0.2,0.2L79.8,80.9z M82.1,78.6l-1.9-1.8l-0.3,0.3l1,1
	c0.2,0.2,0.3,0.3,0.3,0.4c0.1,0.1,0.1,0.2,0,0.4c0,0.1-0.1,0.2-0.2,0.3s-0.2,0.2-0.3,0.2c-0.1,0-0.2,0-0.3-0.1
	c-0.1,0-0.2-0.1-0.4-0.3L79,78l-0.3,0.3l1.2,1.1c0.1,0.1,0.2,0.2,0.3,0.3c0.1,0.1,0.2,0.1,0.3,0.1c0.1,0,0.2,0,0.4-0.1
	c0.1-0.1,0.3-0.1,0.4-0.3c0.2-0.3,0.3-0.6,0.2-0.9l0.3,0.3L82.1,78.6z M83.9,76.1c0-0.3-0.1-0.5-0.3-0.7l-0.3,0.3
	c0.2,0.2,0.2,0.3,0.2,0.5c0,0.2,0,0.3-0.2,0.4c-0.1,0.2-0.3,0.3-0.5,0.3s-0.5-0.1-0.7-0.3c-0.3-0.2-0.4-0.4-0.5-0.6
	c0-0.2,0-0.4,0.2-0.6c0.1-0.1,0.2-0.2,0.3-0.2c0.1,0,0.3,0,0.5,0.1l0.2-0.4c-0.2-0.1-0.5-0.2-0.7-0.1c-0.2,0.1-0.4,0.2-0.6,0.4
	c-0.1,0.2-0.2,0.4-0.3,0.6c0,0.2,0,0.4,0.1,0.6c0.1,0.2,0.3,0.4,0.5,0.6c0.3,0.3,0.7,0.4,1,0.4c0.3,0,0.6-0.2,0.8-0.5
	C83.8,76.7,83.9,76.4,83.9,76.1z M86.1,73.4c-0.1,0-0.2,0-0.3-0.1c-0.1,0-0.3-0.2-0.7-0.4l-0.5-0.3c-0.2-0.1-0.3-0.2-0.4-0.2
	c-0.1,0-0.2-0.1-0.3-0.1c-0.1,0-0.2,0.1-0.3,0.1c-0.1,0.1-0.3,0.2-0.4,0.4c-0.1,0.2-0.2,0.4-0.3,0.5c0,0.2,0,0.3,0,0.5
	c0,0.1,0.1,0.3,0.3,0.4l0.3-0.3c-0.1-0.1-0.2-0.3-0.2-0.4c0-0.1,0.1-0.3,0.2-0.4c0.1-0.2,0.3-0.3,0.4-0.3c0.1,0,0.2,0,0.4,0.1
	c0,0,0,0,0.1,0.1c0,0.2-0.2,0.4-0.3,0.7c-0.1,0.2-0.1,0.3-0.2,0.4c0,0.1-0.1,0.2-0.1,0.4c0,0.1,0,0.2,0.1,0.3
	c0.1,0.1,0.1,0.2,0.2,0.3c0.2,0.1,0.4,0.2,0.6,0.1c0.2,0,0.4-0.2,0.6-0.4c0.1-0.1,0.2-0.3,0.2-0.5c0-0.2,0-0.3,0-0.6
	c0.1,0.1,0.2,0.1,0.3,0.1L86.1,73.4z M87.1,71.8l-0.4-0.2c0,0.1-0.1,0.1-0.1,0.2c0,0.1-0.1,0.1-0.1,0.1c0,0-0.1,0-0.1,0
	c0,0-0.1,0-0.2-0.1L84.8,71l0.2-0.4l-0.3-0.2l-0.2,0.4l-0.8-0.5l0,0.5l0.6,0.3l-0.2,0.3l0.3,0.2l0.2-0.3l1.3,0.8
	c0.2,0.1,0.4,0.2,0.5,0.2c0.1,0,0.2,0,0.3-0.1c0.1,0,0.2-0.1,0.3-0.3C87,72,87,71.9,87.1,71.8z M87.6,70.9l-2.3-1.3L85.1,70l2.3,1.3
	L87.6,70.9z M88.8,68.4c0-0.2-0.1-0.4-0.2-0.6c-0.1-0.2-0.3-0.3-0.7-0.5c-0.4-0.2-0.7-0.2-1-0.1c-0.3,0.1-0.6,0.3-0.7,0.6
	c-0.1,0.3-0.2,0.6-0.1,0.9c0.1,0.3,0.4,0.6,0.8,0.9c0.4,0.2,0.8,0.2,1.1,0.1c0.3-0.1,0.6-0.3,0.7-0.6C88.7,68.8,88.8,68.6,88.8,68.4
	z M90.3,65l-1.5-0.6c-0.2-0.1-0.3-0.1-0.4-0.1c-0.1,0-0.2,0-0.4,0c-0.1,0-0.2,0.1-0.3,0.2c-0.1,0.1-0.2,0.2-0.2,0.4
	c-0.1,0.3-0.1,0.7,0.1,0.9l-0.4-0.1L87,66l2.5,1l0.2-0.4L88.3,66c-0.3-0.1-0.5-0.3-0.6-0.5c-0.1-0.2-0.1-0.4,0-0.5
	c0-0.1,0.1-0.2,0.2-0.3s0.2-0.1,0.3-0.1s0.2,0,0.4,0.1l1.5,0.6L90.3,65z M91.6,60.3l1.1-1.1l-1.5-0.2l-0.7-1.4l-0.7,1.4l-1.5,0.2
	l1.1,1.1l-0.3,1.5l1.4-0.7l1.4,0.7L91.6,60.3z M94.1,52.1l-5-0.4l-0.3,3.6l0.9,0.1l0.2-2.5l4.2,0.3L94.1,52.1z M92.1,41.5
	c-0.3-0.2-0.8-0.3-1.4-0.2c-0.6,0.1-1,0.3-1.2,0.6c-0.2,0.3-0.3,0.7-0.3,1.1c0.1,0.4,0.3,0.7,0.6,0.9c0.3,0.2,0.8,0.3,1.4,0.2
	c0.6-0.1,1-0.3,1.2-0.6c0.2-0.3,0.3-0.7,0.2-1.1C92.6,42,92.4,41.7,92.1,41.5z M18.1,75.5c-0.2,0-0.4,0-0.6,0.2l0.9,1.1
	c0.2-0.2,0.3-0.3,0.3-0.4c0-0.2,0-0.4-0.2-0.6C18.4,75.6,18.3,75.5,18.1,75.5z M46.1,57.2c0.2-0.2,0.4-0.4,0.5-0.5
	c0.1-0.2,0.2-0.3,0.3-0.5c0.1-0.1,0.1-0.3,0.1-0.5c0-0.3-0.1-0.5-0.3-0.7c-0.2-0.2-0.5-0.3-0.9-0.3c-0.3,0-0.6,0.1-0.8,0.3
	c-0.2,0.2-0.4,0.4-0.4,0.8l0.7,0.1c0-0.2,0.1-0.4,0.1-0.4c0.1-0.1,0.2-0.1,0.3-0.1c0.1,0,0.3,0,0.3,0.1c0.1,0.1,0.1,0.2,0.1,0.4
	c0,0.1,0,0.3-0.1,0.4c-0.1,0.1-0.3,0.3-0.6,0.6c-0.4,0.4-0.7,0.7-0.8,0.9c-0.1,0.2-0.2,0.5-0.2,0.7h2.5v-0.7h-1.4
	c0-0.1,0.1-0.1,0.1-0.2C45.7,57.5,45.8,57.4,46.1,57.2z M65.4,88.7c-0.1,0.1-0.3,0.3-0.6,0.4c-0.2,0.1-0.3,0.2-0.3,0.2
	c-0.1,0.1-0.1,0.1-0.1,0.2c0,0.1,0,0.1,0,0.2c0,0.1,0.1,0.2,0.2,0.2c0.1,0,0.3,0,0.4,0c0.2-0.1,0.3-0.2,0.4-0.3
	c0.1-0.1,0.2-0.3,0.2-0.4c0-0.1,0-0.3-0.1-0.4L65.4,88.7z M58.9,89.4c-0.1-0.2-0.3-0.3-0.5-0.4c-0.2-0.1-0.4-0.1-0.7-0.1
	c-0.4,0.1-0.6,0.2-0.8,0.5c-0.2,0.3-0.2,0.7-0.1,1.2c0.1,0.5,0.3,0.8,0.6,1c0.3,0.2,0.6,0.3,1,0.2c0.2,0,0.3-0.1,0.5-0.2
	c-0.2-0.1-0.3-0.1-0.5-0.1l0-0.4c0.3,0,0.5,0.1,0.7,0.2c0.2-0.3,0.3-0.7,0.2-1.2C59.1,89.8,59,89.6,58.9,89.4z M11.1,32.5
	c-0.2-0.1-0.3-0.1-0.4,0c-0.1,0-0.2,0.1-0.3,0.3c0,0.1-0.1,0.3-0.3,0.7l-0.3,0.7l1.2,0.5l0.3-0.7c0.2-0.5,0.3-0.7,0.3-0.9
	c0-0.1,0-0.2-0.1-0.3C11.4,32.6,11.3,32.6,11.1,32.5z M14.1,71.4c-0.1-0.1-0.2-0.2-0.3-0.3c-0.1,0-0.1-0.1-0.2-0.1
	c-0.1,0-0.1,0-0.2,0.1c-0.1,0.1-0.2,0.2-0.2,0.3c0,0.1,0,0.3,0.1,0.4c0.1,0.1,0.2,0.3,0.3,0.3c0.1,0.1,0.3,0.1,0.4,0.1
	c0.1,0,0.3-0.1,0.4-0.2l0.1-0.1C14.4,71.8,14.3,71.6,14.1,71.4z M13.6,68.8c0.1-0.2,0.1-0.4,0-0.6c-0.1-0.2-0.2-0.3-0.4-0.4
	c-0.2-0.1-0.4-0.1-0.6,0l0.7,1.3C13.5,69,13.6,68.9,13.6,68.8z M49.4,55.2c0.2,0.3,0.4,0.8,0.4,1.5c0,0.7-0.1,1.2-0.4,1.5
	c-0.2,0.2-0.5,0.4-0.8,0.4c-0.4,0-0.6-0.1-0.9-0.4s-0.3-0.8-0.3-1.5c0-0.7,0.1-1.2,0.4-1.5c0.2-0.2,0.5-0.4,0.8-0.4
	C48.9,54.8,49.2,54.9,49.4,55.2z M49,56.7c0-0.4,0-0.7-0.1-0.9c0-0.2-0.1-0.3-0.2-0.3c-0.1-0.1-0.1-0.1-0.2-0.1
	c-0.1,0-0.2,0-0.2,0.1s-0.1,0.2-0.2,0.3c0,0.2-0.1,0.5-0.1,0.9s0,0.7,0.1,0.9s0.1,0.3,0.2,0.3c0.1,0.1,0.1,0.1,0.2,0.1
	c0.1,0,0.2,0,0.2-0.1c0.1-0.1,0.1-0.2,0.2-0.3C49,57.4,49,57.1,49,56.7z M77.2,80.5c0,0.2,0.1,0.4,0.4,0.7c0.2,0.3,0.5,0.4,0.7,0.4
	c0.2,0,0.4,0,0.5-0.2C79,81.3,79,81.2,79,81c0-0.2-0.1-0.4-0.3-0.7c-0.2-0.3-0.5-0.4-0.7-0.4c-0.2,0-0.4,0-0.6,0.2
	C77.3,80.1,77.2,80.3,77.2,80.5z M51.5,91.6c-0.1,0.1-0.1,0.3-0.1,0.4c0,0.1,0.1,0.3,0.2,0.5c0.1,0.2,0.3,0.2,0.5,0.2
	c0.1,0,0.3-0.1,0.4-0.1c0.1-0.1,0.2-0.2,0.3-0.3l-0.9-1C51.7,91.3,51.5,91.4,51.5,91.6z M51.6,56c-0.2,0-0.3,0-0.5,0.1l0.1-0.6h1.3
	v-0.7h-1.9l-0.4,1.9l0.6,0.1c0.2-0.2,0.3-0.3,0.5-0.3c0.2,0,0.3,0.1,0.4,0.2c0.1,0.1,0.2,0.3,0.2,0.5c0,0.2-0.1,0.4-0.2,0.5
	c-0.1,0.1-0.2,0.2-0.4,0.2c-0.1,0-0.2,0-0.3-0.1c-0.1-0.1-0.2-0.2-0.2-0.4l-0.7,0.1c0,0.3,0.2,0.6,0.4,0.7c0.2,0.2,0.5,0.3,0.8,0.3
	c0.4,0,0.8-0.2,1-0.5c0.2-0.2,0.3-0.5,0.3-0.8c0-0.4-0.1-0.7-0.3-0.9C52.1,56.1,51.9,56,51.6,56z M57.4,43.5c0,2.8,0,5.7,0,8.5
	c-2.3-1.1-5-0.9-7.1,0.6c-0.5,0.4,0,1.2,0.5,0.8c2.1-1.5,4.7-1.5,6.9-0.1c0.3,0.2,0.7-0.1,0.7-0.4c0-3.1,0-6.2,0-9.3
	C58.3,42.9,57.4,42.9,57.4,43.5z M53.8,55.4c-0.2,0.2-0.4,0.3-0.6,0.3v0.6c0.3-0.1,0.7-0.3,0.9-0.5v2.6h0.7v-3.7h-0.6
	C54.2,55,54.1,55.2,53.8,55.4z"/>
</svg>
